<?xml version="1.0" encoding="UTF-8" standalone="no"?>
<!DOCTYPE svg PUBLIC "-//W3C//DTD SVG 1.1//EN"
 "http://www.w3.org/Graphics/SVG/1.1/DTD/svg11.dtd">
<!-- Generated by graphviz version 2.40.1 (20161225.0304)
 -->
<!-- Title: NNNN Pages: 1 -->
<svg width="563pt" height="235pt"
 viewBox="14.40 14.40 548.40 220.40" xmlns="http://www.w3.org/2000/svg" xmlns:xlink="http://www.w3.org/1999/xlink">
<g id="graph0" class="graph" transform="scale(1 1) rotate(0) translate(18.4 216.4)">
<title>NNNN</title>
<polygon fill="#343434" stroke="transparent" points="-4,4 -4,-202 530,-202 530,4 -4,4"/>
<text text-anchor="middle" x="263" y="-179.6" font-family="Times,serif" font-size="18.00" fill="#ffffff">noddd</text>
<g id="clust2" class="cluster">
<title>cluster1</title>
<polygon fill="#888888" stroke="#000000" points="284,-8 284,-164 518,-164 518,-8 284,-8"/>
<text text-anchor="middle" x="335.2422" y="-145.6" font-family="Times,serif" font-size="18.00" fill="#ffffff"> message B </text>
</g>
<g id="clust1" class="cluster">
<title>cluster0</title>
<polygon fill="#888888" stroke="#000000" points="8,-8 8,-164 248,-164 248,-8 8,-8"/>
<text text-anchor="middle" x="58.7544" y="-145.6" font-family="Times,serif" font-size="18.00" fill="#ffffff"> message A </text>
</g>
<!-- A -->
<g id="node1" class="node">
<title>A</title>
<polygon fill="#006837" stroke="#d9ef8b" points="131,-138 104,-120 131,-102 158,-120 131,-138"/>
<text text-anchor="middle" x="131" y="-116.4" font-family="Migu 1M" font-size="12.00" fill="#ffffbf">A</text>
</g>
<!-- a_a1 -->
<g id="node2" class="node">
<title>a_a1</title>
<polygon fill="#006837" stroke="#d9ef8b" points="38,-44 8.4888,-26 38,-8 67.5112,-26 38,-44"/>
<text text-anchor="middle" x="38" y="-22.4" font-family="Migu 1M" font-size="12.00" fill="#ffffbf">a_a1</text>
</g>
<!-- A&#45;&gt;a_a1 -->
<g id="edge1" class="edge">
<title>A&#45;&gt;a_a1</title>
<path fill="none" stroke="#ffffff" d="M119.9665,-108.8478C104.3198,-93.0329 75.4828,-63.8858 56.5231,-44.7222"/>
<polygon fill="#ffffff" stroke="#ffffff" points="58.8305,-42.078 49.3092,-37.4308 53.8543,-47.0012 58.8305,-42.078"/>
</g>
<!-- b1 -->
<g id="node3" class="node">
<title>b1</title>
<polygon fill="#006837" stroke="#d9ef8b" points="131,-44 104,-26 131,-8 158,-26 131,-44"/>
<text text-anchor="middle" x="131" y="-22.4" font-family="Migu 1M" font-size="12.00" fill="#ffffbf">b1</text>
</g>
<!-- A&#45;&gt;b1 -->
<g id="edge2" class="edge">
<title>A&#45;&gt;b1</title>
<path fill="none" stroke="#ffffff" d="M131,-101.8759C131,-88.3516 131,-69.6192 131,-54.1514"/>
<polygon fill="#ffffff" stroke="#ffffff" points="134.5001,-54.0685 131,-44.0685 127.5001,-54.0685 134.5001,-54.0685"/>
</g>
<!-- c1 -->
<g id="node4" class="node">
<title>c1</title>
<polygon fill="#006837" stroke="#d9ef8b" points="221,-44 194,-26 221,-8 248,-26 221,-44"/>
<text text-anchor="middle" x="221" y="-22.4" font-family="Migu 1M" font-size="12.00" fill="#ffffbf">c1</text>
</g>
<!-- A&#45;&gt;c1 -->
<g id="edge3" class="edge">
<title>A&#45;&gt;c1</title>
<path fill="none" stroke="#ffffff" d="M141.6776,-108.8478C156.9014,-92.9474 185.0284,-63.5703 203.3712,-44.4123"/>
<polygon fill="#ffffff" stroke="#ffffff" points="205.9486,-46.7813 210.3363,-37.1377 200.8925,-41.9402 205.9486,-46.7813"/>
</g>
<!-- B -->
<g id="node5" class="node">
<title>B</title>
<polygon fill="#006837" stroke="#d9ef8b" points="401,-138 374,-120 401,-102 428,-120 401,-138"/>
<text text-anchor="middle" x="401" y="-116.4" font-family="Migu 1M" font-size="12.00" fill="#ffffbf">B</text>
</g>
<!-- a -->
<g id="node6" class="node">
<title>a</title>
<polygon fill="#006837" stroke="#d9ef8b" points="311,-44 284,-26 311,-8 338,-26 311,-44"/>
<text text-anchor="middle" x="311" y="-22.4" font-family="Migu 1M" font-size="12.00" fill="#ffffbf">a</text>
</g>
<!-- B&#45;&gt;a -->
<g id="edge4" class="edge">
<title>B&#45;&gt;a</title>
<path fill="none" stroke="#ffffff" d="M390.3224,-108.8478C375.0986,-92.9474 346.9716,-63.5703 328.6288,-44.4123"/>
<polygon fill="#ffffff" stroke="#ffffff" points="331.1075,-41.9402 321.6637,-37.1377 326.0514,-46.7813 331.1075,-41.9402"/>
</g>
<!-- b -->
<g id="node7" class="node">
<title>b</title>
<polygon fill="#006837" stroke="#d9ef8b" points="401,-44 374,-26 401,-8 428,-26 401,-44"/>
<text text-anchor="middle" x="401" y="-22.4" font-family="Migu 1M" font-size="12.00" fill="#ffffbf">b</text>
</g>
<!-- B&#45;&gt;b -->
<g id="edge5" class="edge">
<title>B&#45;&gt;b</title>
<path fill="none" stroke="#ffffff" d="M401,-101.8759C401,-88.3516 401,-69.6192 401,-54.1514"/>
<polygon fill="#ffffff" stroke="#ffffff" points="404.5001,-54.0685 401,-44.0685 397.5001,-54.0685 404.5001,-54.0685"/>
</g>
<!-- c -->
<g id="node8" class="node">
<title>c</title>
<polygon fill="#006837" stroke="#d9ef8b" points="491,-44 464,-26 491,-8 518,-26 491,-44"/>
<text text-anchor="middle" x="491" y="-22.4" font-family="Migu 1M" font-size="12.00" fill="#ffffbf">c</text>
</g>
<!-- B&#45;&gt;c -->
<g id="edge6" class="edge">
<title>B&#45;&gt;c</title>
<path fill="none" stroke="#ffffff" d="M411.6776,-108.8478C426.9014,-92.9474 455.0284,-63.5703 473.3712,-44.4123"/>
<polygon fill="#ffffff" stroke="#ffffff" points="475.9486,-46.7813 480.3363,-37.1377 470.8925,-41.9402 475.9486,-46.7813"/>
</g>
</g>
</svg>
