<?xml version="1.0" encoding="UTF-8" standalone="no"?>
<!DOCTYPE svg PUBLIC "-//W3C//DTD SVG 1.1//EN"
 "http://www.w3.org/Graphics/SVG/1.1/DTD/svg11.dtd">
<!-- Generated by graphviz version 2.40.1 (20161225.0304)
 -->
<!-- Title: graph_name Pages: 1 -->
<svg width="345pt" height="363pt"
 viewBox="0.00 0.00 345.37 363.00" xmlns="http://www.w3.org/2000/svg" xmlns:xlink="http://www.w3.org/1999/xlink">
<g id="graph0" class="graph" transform="scale(1 1) rotate(0) translate(4 359)">
<title>graph_name</title>
<polygon fill="#ededed" stroke="transparent" points="-4,4 -4,-359 341.3701,-359 341.3701,4 -4,4"/>
<!-- alpha -->
<g id="node1" class="node">
<title>alpha</title>
<polygon fill="none" stroke="#000000" points="0,-318.5 0,-354.5 120.7031,-354.5 120.7031,-318.5 0,-318.5"/>
<text text-anchor="middle" x="16.0039" y="-332.9" font-family="Migu 1M" font-size="12.00" fill="#000000">left</text>
<polyline fill="none" stroke="#000000" points="32.0078,-318.5 32.0078,-354.5 "/>
<text text-anchor="middle" x="56.6836" y="-332.9" font-family="Migu 1M" font-size="12.00" fill="#000000">center</text>
<polyline fill="none" stroke="#000000" points="81.3594,-318.5 81.3594,-354.5 "/>
<text text-anchor="middle" x="101.0313" y="-332.9" font-family="Migu 1M" font-size="12.00" fill="#000000">right</text>
</g>
<!-- beta -->
<g id="node2" class="node">
<title>beta</title>
<polygon fill="none" stroke="#000000" points="0,-191.5 0,-227.5 120.7031,-227.5 120.7031,-191.5 0,-191.5"/>
<text text-anchor="middle" x="16.0039" y="-205.9" font-family="Migu 1M" font-size="12.00" fill="#000000">left</text>
<polyline fill="none" stroke="#000000" points="32.0078,-191.5 32.0078,-227.5 "/>
<text text-anchor="middle" x="56.6836" y="-205.9" font-family="Migu 1M" font-size="12.00" fill="#000000">center</text>
<polyline fill="none" stroke="#000000" points="81.3594,-191.5 81.3594,-227.5 "/>
<text text-anchor="middle" x="101.0313" y="-205.9" font-family="Migu 1M" font-size="12.00" fill="#000000">right</text>
</g>
<!-- alpha&#45;&gt;beta -->
<g id="edge1" class="edge">
<title>alpha:pl&#45;&gt;beta:pl</title>
<path fill="none" stroke="#000000" d="M16.3516,-318.5C16.3516,-281.6892 16.3516,-270.0061 16.3516,-237.7105"/>
<polygon fill="#000000" stroke="#000000" points="19.8517,-237.5 16.3516,-227.5 12.8517,-237.5 19.8517,-237.5"/>
<text text-anchor="middle" x="25.2896" y="-268.8" font-family="Times,serif" font-size="14.00" fill="#000000">a&#45;b</text>
</g>
<!-- gamma -->
<g id="node3" class="node">
<title>gamma</title>
<polygon fill="none" stroke="#000000" points="200,-191.5 200,-227.5 320.7031,-227.5 320.7031,-191.5 200,-191.5"/>
<text text-anchor="middle" x="216.0039" y="-205.9" font-family="Migu 1M" font-size="12.00" fill="#000000">left</text>
<polyline fill="none" stroke="#000000" points="232.0078,-191.5 232.0078,-227.5 "/>
<text text-anchor="middle" x="256.6836" y="-205.9" font-family="Migu 1M" font-size="12.00" fill="#000000">center</text>
<polyline fill="none" stroke="#000000" points="281.3594,-191.5 281.3594,-227.5 "/>
<text text-anchor="middle" x="301.0313" y="-205.9" font-family="Migu 1M" font-size="12.00" fill="#000000">right</text>
</g>
<!-- alpha&#45;&gt;gamma -->
<g id="edge2" class="edge">
<title>alpha:pr&#45;&gt;gamma:pr</title>
<path fill="none" stroke="#000000" d="M120.3516,-336.5C210.7719,-336.5 294.8781,-322.5047 300.9958,-237.6319"/>
<polygon fill="#000000" stroke="#000000" points="304.4984,-237.6167 301.3516,-227.5 297.5028,-237.371 304.4984,-237.6167"/>
<text text-anchor="middle" x="303.2896" y="-268.8" font-family="Times,serif" font-size="14.00" fill="#000000">a&#45;g</text>
</g>
<!-- epsilon -->
<g id="node5" class="node">
<title>epsilon</title>
<polygon fill="none" stroke="#000000" points="29.3516,-20.5 29.3516,-80.5 83.3516,-80.5 83.3516,-20.5 29.3516,-20.5"/>
<text text-anchor="middle" x="56.1943" y="-66.9" font-family="Migu 1M" font-size="12.00" fill="#000000">top</text>
<polyline fill="none" stroke="#000000" points="29.3516,-60.5 83.0371,-60.5 "/>
<text text-anchor="middle" x="56.1943" y="-46.9" font-family="Migu 1M" font-size="12.00" fill="#000000">middle</text>
<polyline fill="none" stroke="#000000" points="29.3516,-40.5 83.0371,-40.5 "/>
<text text-anchor="middle" x="56.1943" y="-26.9" font-family="Migu 1M" font-size="12.00" fill="#000000">bottom</text>
</g>
<!-- beta&#45;&gt;epsilon -->
<g id="edge3" class="edge">
<title>beta:pc&#45;&gt;epsilon:pm</title>
<path fill="none" stroke="#000000" d="M56.3516,-191.5C56.3516,-131.6826 136.1609,-60.097 93.5631,-51.3825"/>
<polygon fill="#000000" stroke="#000000" points="93.6158,-47.8741 83.3516,-50.5 93.013,-54.8481 93.6158,-47.8741"/>
<text text-anchor="middle" x="80.2896" y="-141.8" font-family="Times,serif" font-size="14.00" fill="#000000">b&#45;e</text>
</g>
<!-- delta -->
<g id="node4" class="node">
<title>delta</title>
<polygon fill="none" stroke="#000000" points="235.333,-.5 235.333,-100.5 337.3701,-100.5 337.3701,-.5 235.333,-.5"/>
<text text-anchor="middle" x="286.3516" y="-86.9" font-family="Migu 1M" font-size="12.00" fill="#000000">left</text>
<polyline fill="none" stroke="#000000" points="235.333,-80.5 337.3701,-80.5 "/>
<text text-anchor="middle" x="260.0088" y="-46.9" font-family="Migu 1M" font-size="12.00" fill="#000000">center</text>
<polyline fill="none" stroke="#000000" points="284.6846,-20.5 284.6846,-80.5 "/>
<text text-anchor="middle" x="311.0273" y="-66.9" font-family="Migu 1M" font-size="12.00" fill="#000000">top</text>
<polyline fill="none" stroke="#000000" points="284.6846,-60.5 337.3701,-60.5 "/>
<text text-anchor="middle" x="311.0273" y="-46.9" font-family="Migu 1M" font-size="12.00" fill="#000000">middle</text>
<polyline fill="none" stroke="#000000" points="284.6846,-40.5 337.3701,-40.5 "/>
<text text-anchor="middle" x="311.0273" y="-26.9" font-family="Migu 1M" font-size="12.00" fill="#000000">bottom</text>
<polyline fill="none" stroke="#000000" points="235.333,-20.5 337.3701,-20.5 "/>
<text text-anchor="middle" x="286.3516" y="-6.9" font-family="Migu 1M" font-size="12.00" fill="#000000">right</text>
</g>
<!-- gamma&#45;&gt;delta -->
<g id="edge4" class="edge">
<title>gamma&#45;&gt;delta:pc</title>
<path fill="none" stroke="#000000" d="M249.9492,-191.2607C228.6658,-152.3515 185.3772,-63.7672 225.2013,-51.8379"/>
<polygon fill="#000000" stroke="#000000" points="225.8947,-55.2769 235.3516,-50.5 224.9799,-48.3369 225.8947,-55.2769"/>
<text text-anchor="middle" x="238.6826" y="-141.8" font-family="Times,serif" font-size="14.00" fill="#000000">g&#45;d</text>
</g>
</g>
</svg>
