<?xml version="1.0" encoding="UTF-8" standalone="no"?>
<!DOCTYPE svg PUBLIC "-//W3C//DTD SVG 1.1//EN"
 "http://www.w3.org/Graphics/SVG/1.1/DTD/svg11.dtd">
<!-- Generated by graphviz version 2.40.1 (20161225.0304)
 -->
<!-- Title: graph_name Pages: 1 -->
<svg width="415pt" height="656pt"
 viewBox="0.00 0.00 415.48 655.97" xmlns="http://www.w3.org/2000/svg" xmlns:xlink="http://www.w3.org/1999/xlink">
<g id="graph0" class="graph" transform="scale(1 1) rotate(0) translate(4 651.9675)">
<title>graph_name</title>
<polygon fill="#ededed" stroke="transparent" points="-4,4 -4,-651.9675 411.4804,-651.9675 411.4804,4 -4,4"/>
<!-- alpha -->
<g id="node1" class="node">
<title>alpha</title>
<polygon fill="none" stroke="#000000" points="0,-536.5 0,-636.5 156.7383,-636.5 156.7383,-536.5 0,-536.5"/>
<text text-anchor="middle" x="78.3691" y="-622.9" font-family="Migu 1M" font-size="12.00" fill="#000000">left</text>
<polyline fill="none" stroke="#000000" points="0,-616.5 156.7383,-616.5 "/>
<text text-anchor="middle" x="29.0176" y="-582.9" font-family="Migu 1M" font-size="12.00" fill="#000000">optional</text>
<polyline fill="none" stroke="#000000" points="58.0352,-556.5 58.0352,-616.5 "/>
<text text-anchor="middle" x="84.3779" y="-602.9" font-family="Migu 1M" font-size="12.00" fill="#000000">string</text>
<polyline fill="none" stroke="#000000" points="58.0352,-596.5 110.7207,-596.5 "/>
<text text-anchor="middle" x="84.3779" y="-582.9" font-family="Migu 1M" font-size="12.00" fill="#000000">float</text>
<polyline fill="none" stroke="#000000" points="58.0352,-576.5 110.7207,-576.5 "/>
<text text-anchor="middle" x="84.3779" y="-562.9" font-family="Migu 1M" font-size="12.00" fill="#000000">bottom</text>
<polyline fill="none" stroke="#000000" points="110.7207,-556.5 110.7207,-616.5 "/>
<text text-anchor="middle" x="133.7295" y="-602.9" font-family="Migu 1M" font-size="12.00" fill="#000000">name</text>
<polyline fill="none" stroke="#000000" points="110.7207,-596.5 156.7383,-596.5 "/>
<text text-anchor="middle" x="133.7295" y="-582.9" font-family="Migu 1M" font-size="12.00" fill="#000000">f</text>
<polyline fill="none" stroke="#000000" points="110.7207,-576.5 156.7383,-576.5 "/>
<text text-anchor="middle" x="133.7295" y="-562.9" font-family="Migu 1M" font-size="12.00" fill="#000000">a</text>
<polyline fill="none" stroke="#000000" points="0,-556.5 156.7383,-556.5 "/>
<text text-anchor="middle" x="78.3691" y="-542.9" font-family="Migu 1M" font-size="12.00" fill="#000000">right</text>
</g>
<!-- beta -->
<g id="node2" class="node">
<title>beta</title>
<polygon fill="none" stroke="#000000" points="62.0176,-409.5 62.0176,-445.5 182.7207,-445.5 182.7207,-409.5 62.0176,-409.5"/>
<text text-anchor="middle" x="78.0215" y="-423.9" font-family="Migu 1M" font-size="12.00" fill="#000000">left</text>
<polyline fill="none" stroke="#000000" points="94.0254,-409.5 94.0254,-445.5 "/>
<text text-anchor="middle" x="118.7012" y="-423.9" font-family="Migu 1M" font-size="12.00" fill="#000000">center</text>
<polyline fill="none" stroke="#000000" points="143.377,-409.5 143.377,-445.5 "/>
<text text-anchor="middle" x="163.0488" y="-423.9" font-family="Migu 1M" font-size="12.00" fill="#000000">right</text>
</g>
<!-- alpha&#45;&gt;beta -->
<g id="edge1" class="edge">
<title>alpha:pl&#45;&gt;beta:pl</title>
<path fill="none" stroke="#000000" d="M78.3691,-636.5C78.3691,-653.9154 144.4238,-648.8145 156.7383,-636.5 188.3224,-604.9159 172.3411,-577.8529 156.7383,-536 139.4226,-489.5527 86.3501,-497.2813 79.175,-455.5306"/>
<polygon fill="#000000" stroke="#000000" points="82.6588,-455.1876 78.3691,-445.5 75.6813,-455.7482 82.6588,-455.1876"/>
<text text-anchor="middle" x="130.3071" y="-486.8" font-family="Times,serif" font-size="14.00" fill="#000000">a&#45;b</text>
</g>
<!-- gamma -->
<g id="node3" class="node">
<title>gamma</title>
<polygon fill="none" stroke="#000000" points="262.0176,-409.5 262.0176,-445.5 382.7207,-445.5 382.7207,-409.5 262.0176,-409.5"/>
<text text-anchor="middle" x="278.0215" y="-423.9" font-family="Migu 1M" font-size="12.00" fill="#000000">left</text>
<polyline fill="none" stroke="#000000" points="294.0254,-409.5 294.0254,-445.5 "/>
<text text-anchor="middle" x="318.7012" y="-423.9" font-family="Migu 1M" font-size="12.00" fill="#000000">center</text>
<polyline fill="none" stroke="#000000" points="343.377,-409.5 343.377,-445.5 "/>
<text text-anchor="middle" x="363.0488" y="-423.9" font-family="Migu 1M" font-size="12.00" fill="#000000">right</text>
</g>
<!-- alpha&#45;&gt;gamma -->
<g id="edge2" class="edge">
<title>alpha:pr&#45;&gt;gamma:pr</title>
<path fill="none" stroke="#000000" d="M156.3691,-546.5C179.4617,-546.5 329.4238,-485.1008 358.4931,-454.3062"/>
<polygon fill="#000000" stroke="#000000" points="361.587,-455.9439 363.3691,-445.5 355.4631,-452.553 361.587,-455.9439"/>
<text text-anchor="middle" x="318.3071" y="-486.8" font-family="Times,serif" font-size="14.00" fill="#000000">a&#45;g</text>
</g>
<!-- epsilon -->
<g id="node7" class="node">
<title>epsilon</title>
<polygon fill="none" stroke="#000000" points="91.3691,-198.5 91.3691,-258.5 145.3691,-258.5 145.3691,-198.5 91.3691,-198.5"/>
<text text-anchor="middle" x="118.2119" y="-244.9" font-family="Migu 1M" font-size="12.00" fill="#000000">top</text>
<polyline fill="none" stroke="#000000" points="91.3691,-238.5 145.0547,-238.5 "/>
<text text-anchor="middle" x="118.2119" y="-224.9" font-family="Migu 1M" font-size="12.00" fill="#000000">middle</text>
<polyline fill="none" stroke="#000000" points="91.3691,-218.5 145.0547,-218.5 "/>
<text text-anchor="middle" x="118.2119" y="-204.9" font-family="Migu 1M" font-size="12.00" fill="#000000">bottom</text>
</g>
<!-- beta&#45;&gt;epsilon -->
<g id="edge3" class="edge">
<title>beta:pc&#45;&gt;epsilon:pm</title>
<path fill="none" stroke="#000000" d="M118.3691,-409.5C118.3691,-331.978 216.7854,-237.8034 155.5872,-229.1448"/>
<polygon fill="#000000" stroke="#000000" points="155.5698,-225.6368 145.3691,-228.5 155.1288,-232.6229 155.5698,-225.6368"/>
<text text-anchor="middle" x="138.3071" y="-359.8" font-family="Times,serif" font-size="14.00" fill="#000000">b&#45;e</text>
</g>
<!-- attribute -->
<g id="node4" class="node">
<title>attribute</title>
<polygon fill="none" stroke="#000000" points="244,-138.5 244,-318.5 400.7383,-318.5 400.7383,-138.5 244,-138.5"/>
<text text-anchor="middle" x="322.3691" y="-304.9" font-family="Migu 1M" font-size="12.00" fill="#000000">AttributeProto</text>
<polyline fill="none" stroke="#000000" points="244,-298.5 400.7383,-298.5 "/>
<text text-anchor="middle" x="273.0176" y="-264.9" font-family="Migu 1M" font-size="12.00" fill="#000000">optional</text>
<polyline fill="none" stroke="#000000" points="302.0352,-238.5 302.0352,-298.5 "/>
<text text-anchor="middle" x="328.3779" y="-284.9" font-family="Migu 1M" font-size="12.00" fill="#000000">string</text>
<polyline fill="none" stroke="#000000" points="302.0352,-278.5 354.7207,-278.5 "/>
<text text-anchor="middle" x="328.3779" y="-264.9" font-family="Migu 1M" font-size="12.00" fill="#000000">float</text>
<polyline fill="none" stroke="#000000" points="302.0352,-258.5 354.7207,-258.5 "/>
<text text-anchor="middle" x="328.3779" y="-244.9" font-family="Migu 1M" font-size="12.00" fill="#000000">bottom</text>
<polyline fill="none" stroke="#000000" points="354.7207,-238.5 354.7207,-298.5 "/>
<text text-anchor="middle" x="377.7295" y="-284.9" font-family="Migu 1M" font-size="12.00" fill="#000000">name</text>
<polyline fill="none" stroke="#000000" points="354.7207,-278.5 400.7383,-278.5 "/>
<text text-anchor="middle" x="377.7295" y="-264.9" font-family="Migu 1M" font-size="12.00" fill="#000000">f</text>
<polyline fill="none" stroke="#000000" points="354.7207,-258.5 400.7383,-258.5 "/>
<text text-anchor="middle" x="377.7295" y="-244.9" font-family="Migu 1M" font-size="12.00" fill="#000000">a</text>
<polyline fill="none" stroke="#000000" points="244,-238.5 400.7383,-238.5 "/>
<text text-anchor="middle" x="275.6865" y="-204.9" font-family="Migu 1M" font-size="12.00" fill="#000000">repeated</text>
<polyline fill="none" stroke="#000000" points="307.373,-178.5 307.373,-238.5 "/>
<text text-anchor="middle" x="330.2139" y="-224.9" font-family="Migu 1M" font-size="12.00" fill="#000000">float</text>
<polyline fill="none" stroke="#000000" points="307.373,-218.5 353.0547,-218.5 "/>
<text text-anchor="middle" x="330.2139" y="-204.9" font-family="Migu 1M" font-size="12.00" fill="#000000">int64</text>
<polyline fill="none" stroke="#000000" points="307.373,-198.5 353.0547,-198.5 "/>
<text text-anchor="middle" x="330.2139" y="-184.9" font-family="Migu 1M" font-size="12.00" fill="#000000">bytes</text>
<polyline fill="none" stroke="#000000" points="353.0547,-178.5 353.0547,-238.5 "/>
<text text-anchor="middle" x="376.5635" y="-224.9" font-family="Migu 1M" font-size="12.00" fill="#000000">name</text>
<polyline fill="none" stroke="#000000" points="353.0547,-218.5 400.0723,-218.5 "/>
<text text-anchor="middle" x="376.5635" y="-204.9" font-family="Migu 1M" font-size="12.00" fill="#000000">f</text>
<polyline fill="none" stroke="#000000" points="353.0547,-198.5 400.0723,-198.5 "/>
<text text-anchor="middle" x="376.5635" y="-184.9" font-family="Migu 1M" font-size="12.00" fill="#000000">a</text>
<polyline fill="none" stroke="#000000" points="244,-178.5 400.7383,-178.5 "/>
<text text-anchor="middle" x="278.6865" y="-154.9" font-family="Migu 1M" font-size="12.00" fill="#000000">repeated</text>
<polyline fill="none" stroke="#000000" points="313.373,-138.5 313.373,-178.5 "/>
<text text-anchor="middle" x="356.7227" y="-164.9" font-family="Migu 1M" font-size="12.00" fill="#000000">TensorProto</text>
<polyline fill="none" stroke="#000000" points="313.373,-158.5 400.0723,-158.5 "/>
<text text-anchor="middle" x="356.7227" y="-144.9" font-family="Migu 1M" font-size="12.00" fill="#000000">GraphProto</text>
</g>
<!-- gamma&#45;&gt;attribute -->
<g id="edge4" class="edge">
<title>gamma&#45;&gt;attribute:pc</title>
<path fill="none" stroke="#000000" d="M322.3691,-409.3708C322.3691,-390.0213 322.3691,-358.1664 322.3691,-328.7706"/>
<polygon fill="#000000" stroke="#000000" points="325.8692,-328.5 322.3691,-318.5 318.8692,-328.5 325.8692,-328.5"/>
<text text-anchor="middle" x="331.7002" y="-359.8" font-family="Times,serif" font-size="14.00" fill="#000000">g&#45;d</text>
</g>
<!-- tensor -->
<g id="node6" class="node">
<title>tensor</title>
<polygon fill="none" stroke="#000000" points="316.0195,-.5 316.0195,-60.5 396.7188,-60.5 396.7188,-.5 316.0195,-.5"/>
<text text-anchor="middle" x="356.3691" y="-46.9" font-family="Migu 1M" font-size="12.00" fill="#000000">TensorProto</text>
<polyline fill="none" stroke="#000000" points="316.0195,-40.5 396.7188,-40.5 "/>
<text text-anchor="middle" x="356.3691" y="-26.9" font-family="Migu 1M" font-size="12.00" fill="#000000">Hei</text>
<polyline fill="none" stroke="#000000" points="316.0195,-20.5 396.7188,-20.5 "/>
<text text-anchor="middle" x="356.3691" y="-6.9" font-family="Migu 1M" font-size="12.00" fill="#000000">You</text>
</g>
<!-- attribute&#45;&gt;tensor -->
<g id="edge5" class="edge">
<title>attribute:tens&#45;&gt;tensor:pa</title>
<path fill="none" stroke="#000000" d="M400.3691,-168.5C413.9247,-168.5 403.8302,-151.1063 400.3691,-138 391.2043,-103.2944 362.514,-100.3729 357.2151,-70.6497"/>
<polygon fill="#000000" stroke="#000000" points="360.6878,-70.1747 356.3691,-60.5 353.712,-70.7562 360.6878,-70.1747"/>
</g>
<!-- variablename -->
<g id="node5" class="node">
<title>variablename</title>
<polygon fill="none" stroke="#000000" points="236.0059,-536.5 236.0059,-636.5 380.7324,-636.5 380.7324,-536.5 236.0059,-536.5"/>
<text text-anchor="middle" x="308.3691" y="-622.9" font-family="Migu 1M" font-size="12.00" fill="#000000">message Name</text>
<polyline fill="none" stroke="#000000" points="236.0059,-616.5 380.7324,-616.5 "/>
<text text-anchor="middle" x="265.0234" y="-592.9" font-family="Migu 1M" font-size="12.00" fill="#000000">optional</text>
<polyline fill="none" stroke="#000000" points="294.041,-576.5 294.041,-616.5 "/>
<text text-anchor="middle" x="317.2188" y="-602.9" font-family="Migu 1M" font-size="12.00" fill="#000000">type1</text>
<polyline fill="none" stroke="#000000" points="294.041,-596.5 340.3965,-596.5 "/>
<text text-anchor="middle" x="317.2188" y="-582.9" font-family="Migu 1M" font-size="12.00" fill="#000000">type2</text>
<polyline fill="none" stroke="#000000" points="340.3965,-576.5 340.3965,-616.5 "/>
<text text-anchor="middle" x="360.0684" y="-602.9" font-family="Migu 1M" font-size="12.00" fill="#000000">var1</text>
<polyline fill="none" stroke="#000000" points="340.3965,-596.5 379.7402,-596.5 "/>
<text text-anchor="middle" x="360.0684" y="-582.9" font-family="Migu 1M" font-size="12.00" fill="#000000">var2</text>
<polyline fill="none" stroke="#000000" points="236.0059,-576.5 380.7324,-576.5 "/>
<text text-anchor="middle" x="266.0195" y="-552.9" font-family="Migu 1M" font-size="12.00" fill="#000000">required</text>
<polyline fill="none" stroke="#000000" points="296.0332,-536.5 296.0332,-576.5 "/>
<text text-anchor="middle" x="318.7109" y="-562.9" font-family="Migu 1M" font-size="12.00" fill="#000000">type1</text>
<polyline fill="none" stroke="#000000" points="296.0332,-556.5 341.3887,-556.5 "/>
<text text-anchor="middle" x="318.7109" y="-542.9" font-family="Migu 1M" font-size="12.00" fill="#000000">type2</text>
<polyline fill="none" stroke="#000000" points="341.3887,-536.5 341.3887,-576.5 "/>
<text text-anchor="middle" x="361.0605" y="-562.9" font-family="Migu 1M" font-size="12.00" fill="#000000">var1</text>
<polyline fill="none" stroke="#000000" points="341.3887,-556.5 380.7324,-556.5 "/>
<text text-anchor="middle" x="361.0605" y="-542.9" font-family="Migu 1M" font-size="12.00" fill="#000000">var2</text>
</g>
</g>
</svg>
