<?xml version="1.0" encoding="UTF-8" standalone="no"?>
<!DOCTYPE svg PUBLIC "-//W3C//DTD SVG 1.1//EN"
 "http://www.w3.org/Graphics/SVG/1.1/DTD/svg11.dtd">
<!-- Generated by graphviz version 2.40.1 (20161225.0304)
 -->
<!-- Title: NNNN Pages: 1 -->
<svg width="1306pt" height="1068pt"
 viewBox="0.00 0.00 1306.04 1068.00" xmlns="http://www.w3.org/2000/svg" xmlns:xlink="http://www.w3.org/1999/xlink">
<g id="graph0" class="graph" transform="scale(1 1) rotate(0) translate(4 1064)">
<title>NNNN</title>
<polygon fill="#ededed" stroke="transparent" points="-4,4 -4,-1064 1302.0371,-1064 1302.0371,4 -4,4"/>
<!-- id_1 -->
<g id="node1" class="node">
<title>id_1</title>
<polygon fill="none" stroke="#000000" points="176.2969,-979.5 176.2969,-1059.5 421.7402,-1059.5 421.7402,-979.5 176.2969,-979.5"/>
<text text-anchor="middle" x="299.0186" y="-1045.9" font-family="Migu 1M" font-size="12.00" fill="#000000"> </text>
<polyline fill="none" stroke="#000000" points="176.2969,-1039.5 421.7402,-1039.5 "/>
<text text-anchor="middle" x="215.3086" y="-1025.9" font-family="Migu 1M" font-size="12.00" fill="#000000">[key] op</text>
<polyline fill="none" stroke="#000000" points="254.3203,-1019.5 254.3203,-1039.5 "/>
<text text-anchor="middle" x="287.9941" y="-1025.9" font-family="Migu 1M" font-size="12.00" fill="#000000">String</text>
<polyline fill="none" stroke="#000000" points="321.668,-1019.5 321.668,-1039.5 "/>
<text text-anchor="middle" x="371.3555" y="-1025.9" font-family="Migu 1M" font-size="12.00" fill="#000000">Placeholder</text>
<polyline fill="none" stroke="#000000" points="176.2969,-1019.5 421.7402,-1019.5 "/>
<text text-anchor="middle" x="239.3037" y="-1005.9" font-family="Migu 1M" font-size="12.00" fill="#000000">[key] attr</text>
<polyline fill="none" stroke="#000000" points="302.3105,-999.5 302.3105,-1019.5 "/>
<text text-anchor="middle" x="361.8213" y="-1005.9" font-family="Migu 1M" font-size="12.00" fill="#000000">Jobject</text>
<polyline fill="none" stroke="#000000" points="176.2969,-999.5 421.7402,-999.5 "/>
<text text-anchor="middle" x="213.6436" y="-985.9" font-family="Migu 1M" font-size="12.00" fill="#000000">[key] name</text>
<polyline fill="none" stroke="#000000" points="250.9902,-979.5 250.9902,-999.5 "/>
<text text-anchor="middle" x="274.6641" y="-985.9" font-family="Migu 1M" font-size="12.00" fill="#000000">String</text>
<polyline fill="none" stroke="#000000" points="298.3379,-979.5 298.3379,-999.5 "/>
<text text-anchor="middle" x="360.0391" y="-985.9" font-family="Migu 1M" font-size="12.00" fill="#000000">images_placeholder</text>
</g>
<!-- id_2 -->
<g id="node2" class="node">
<title>id_2</title>
<polygon fill="none" stroke="#000000" points="269.9668,-822.5 269.9668,-902.5 454.0703,-902.5 454.0703,-822.5 269.9668,-822.5"/>
<text text-anchor="middle" x="362.0186" y="-888.9" font-family="Migu 1M" font-size="12.00" fill="#000000"> </text>
<polyline fill="none" stroke="#000000" points="269.9668,-882.5 454.0703,-882.5 "/>
<text text-anchor="middle" x="320.9824" y="-868.9" font-family="Migu 1M" font-size="12.00" fill="#000000">[key] dtype</text>
<polyline fill="none" stroke="#000000" points="371.998,-862.5 371.998,-882.5 "/>
<text text-anchor="middle" x="413.0088" y="-868.9" font-family="Migu 1M" font-size="12.00" fill="#000000">Jobject</text>
<polyline fill="none" stroke="#000000" points="269.9668,-862.5 454.0703,-862.5 "/>
<text text-anchor="middle" x="321.6523" y="-848.9" font-family="Migu 1M" font-size="12.00" fill="#000000">[key] shape</text>
<polyline fill="none" stroke="#000000" points="373.3379,-842.5 373.3379,-862.5 "/>
<text text-anchor="middle" x="413.3486" y="-848.9" font-family="Migu 1M" font-size="12.00" fill="#000000">Jobject</text>
<polyline fill="none" stroke="#000000" points="269.9668,-842.5 454.0703,-842.5 "/>
<text text-anchor="middle" x="335.0078" y="-828.9" font-family="Migu 1M" font-size="12.00" fill="#000000">[key] _output_shapes</text>
<polyline fill="none" stroke="#000000" points="400.0488,-822.5 400.0488,-842.5 "/>
<text text-anchor="middle" x="427.0596" y="-828.9" font-family="Migu 1M" font-size="12.00" fill="#000000">Jobject</text>
</g>
<!-- id_1&#45;&gt;id_2 -->
<g id="edge1" class="edge">
<title>id_1:attr&#45;&gt;id_2</title>
<path fill="none" stroke="#ffffff" d="M421.0186,-1009.5C464.4208,-1009.5 431.8812,-953.6265 400.5417,-910.7733"/>
<polygon fill="#ffffff" stroke="#ffffff" points="403.2923,-908.6066 394.5179,-902.6684 397.674,-912.7822 403.2923,-908.6066"/>
</g>
<!-- id_11 -->
<g id="node3" class="node">
<title>id_11</title>
<polygon fill="none" stroke="#000000" points="557.3369,-705.5 557.3369,-745.5 670.7002,-745.5 670.7002,-705.5 557.3369,-705.5"/>
<text text-anchor="middle" x="614.0186" y="-731.9" font-family="Migu 1M" font-size="12.00" fill="#000000"> </text>
<polyline fill="none" stroke="#000000" points="557.3369,-725.5 670.7002,-725.5 "/>
<text text-anchor="middle" x="587.0078" y="-711.9" font-family="Migu 1M" font-size="12.00" fill="#000000">[key] list</text>
<polyline fill="none" stroke="#000000" points="616.6787,-705.5 616.6787,-725.5 "/>
<text text-anchor="middle" x="643.6895" y="-711.9" font-family="Migu 1M" font-size="12.00" fill="#000000">Jobject</text>
</g>
<!-- id_2&#45;&gt;id_11 -->
<g id="edge2" class="edge">
<title>id_2:_output_shapes&#45;&gt;id_11</title>
<path fill="none" stroke="#ffffff" d="M454.0186,-832.5C511.01,-832.5 563.0775,-785.0112 591.4877,-753.3075"/>
<polygon fill="#ffffff" stroke="#ffffff" points="594.2527,-755.4622 598.1896,-745.6259 588.978,-750.8602 594.2527,-755.4622"/>
</g>
<!-- id_4 -->
<g id="node12" class="node">
<title>id_4</title>
<polygon fill="none" stroke="#000000" points="347.3223,-705.5 347.3223,-745.5 478.7148,-745.5 478.7148,-705.5 347.3223,-705.5"/>
<text text-anchor="middle" x="413.0186" y="-731.9" font-family="Migu 1M" font-size="12.00" fill="#000000"> </text>
<polyline fill="none" stroke="#000000" points="347.3223,-725.5 478.7148,-725.5 "/>
<text text-anchor="middle" x="386.0078" y="-711.9" font-family="Migu 1M" font-size="12.00" fill="#000000">[key] shape</text>
<polyline fill="none" stroke="#000000" points="424.6934,-705.5 424.6934,-725.5 "/>
<text text-anchor="middle" x="451.7041" y="-711.9" font-family="Migu 1M" font-size="12.00" fill="#000000">Jobject</text>
</g>
<!-- id_2&#45;&gt;id_4 -->
<g id="edge11" class="edge">
<title>id_2:shape&#45;&gt;id_4</title>
<path fill="none" stroke="#ffffff" d="M453.0186,-852.5C494.0009,-852.5 459.0366,-791.5915 433.6611,-754.1361"/>
<polygon fill="#ffffff" stroke="#ffffff" points="436.3473,-751.8664 427.7871,-745.6235 430.5859,-755.842 436.3473,-751.8664"/>
</g>
<!-- id_3 -->
<g id="node19" class="node">
<title>id_3</title>
<polygon fill="none" stroke="#000000" points="77.4375,-705.5 77.4375,-745.5 268.5996,-745.5 268.5996,-705.5 77.4375,-705.5"/>
<text text-anchor="middle" x="173.0186" y="-731.9" font-family="Migu 1M" font-size="12.00" fill="#000000"> </text>
<polyline fill="none" stroke="#000000" points="77.4375,-725.5 268.5996,-725.5 "/>
<text text-anchor="middle" x="111.1162" y="-711.9" font-family="Migu 1M" font-size="12.00" fill="#000000">[key] type</text>
<polyline fill="none" stroke="#000000" points="144.7949,-705.5 144.7949,-725.5 "/>
<text text-anchor="middle" x="168.4688" y="-711.9" font-family="Migu 1M" font-size="12.00" fill="#000000">String</text>
<polyline fill="none" stroke="#000000" points="192.1426,-705.5 192.1426,-725.5 "/>
<text text-anchor="middle" x="230.3711" y="-711.9" font-family="Migu 1M" font-size="12.00" fill="#000000">DT_FLOAT</text>
</g>
<!-- id_2&#45;&gt;id_3 -->
<g id="edge18" class="edge">
<title>id_2:dtype&#45;&gt;id_3</title>
<path fill="none" stroke="#ffffff" d="M454.0186,-872.5C476.463,-872.5 467.0596,-840.2671 454.0186,-822 432.6578,-792.0791 347.9621,-765.5597 277.0864,-747.9307"/>
<polygon fill="#ffffff" stroke="#ffffff" points="277.7311,-744.4851 267.1853,-745.5027 276.0639,-751.2837 277.7311,-744.4851"/>
</g>
<!-- id_12 -->
<g id="node4" class="node">
<title>id_12</title>
<polygon fill="none" stroke="#000000" points="418.998,-588.5 418.998,-628.5 541.0391,-628.5 541.0391,-588.5 418.998,-588.5"/>
<text text-anchor="middle" x="480.0186" y="-614.9" font-family="Migu 1M" font-size="12.00" fill="#000000"> </text>
<polyline fill="none" stroke="#000000" points="418.998,-608.5 541.0391,-608.5 "/>
<text text-anchor="middle" x="457.6836" y="-594.9" font-family="Migu 1M" font-size="12.00" fill="#000000">[key] shape</text>
<polyline fill="none" stroke="#000000" points="496.3691,-588.5 496.3691,-608.5 "/>
<text text-anchor="middle" x="518.7041" y="-594.9" font-family="Migu 1M" font-size="12.00" fill="#000000">Array</text>
</g>
<!-- id_11&#45;&gt;id_12 -->
<g id="edge3" class="edge">
<title>id_11:list&#45;&gt;id_12</title>
<path fill="none" stroke="#ffffff" d="M644.0186,-705.5C644.0186,-659.2725 595.1484,-634.6097 550.763,-621.7433"/>
<polygon fill="#ffffff" stroke="#ffffff" points="551.6551,-618.3589 541.0861,-619.0978 549.8091,-625.1111 551.6551,-618.3589"/>
</g>
<!-- id_13 -->
<g id="node5" class="node">
<title>id_13</title>
<polygon fill="none" stroke="#000000" points="359.3369,-441.5 359.3369,-481.5 442.7002,-481.5 442.7002,-441.5 359.3369,-441.5"/>
<text text-anchor="middle" x="401.0186" y="-467.9" font-family="Migu 1M" font-size="12.00" fill="#000000"> </text>
<polyline fill="none" stroke="#000000" points="359.3369,-461.5 442.7002,-461.5 "/>
<text text-anchor="middle" x="374.0078" y="-447.9" font-family="Migu 1M" font-size="12.00" fill="#000000">[0]</text>
<polyline fill="none" stroke="#000000" points="388.6787,-441.5 388.6787,-461.5 "/>
<text text-anchor="middle" x="415.6895" y="-447.9" font-family="Migu 1M" font-size="12.00" fill="#000000">Jobject</text>
</g>
<!-- id_12&#45;&gt;id_13 -->
<g id="edge4" class="edge">
<title>id_12:shape&#45;&gt;id_13</title>
<path fill="none" stroke="#ffffff" d="M519.0186,-588.5C519.0186,-544.4334 480.4193,-509.2301 447.3735,-487.1665"/>
<polygon fill="#ffffff" stroke="#ffffff" points="448.9818,-484.0394 438.6789,-481.5694 445.1928,-489.9252 448.9818,-484.0394"/>
</g>
<!-- id_14 -->
<g id="node6" class="node">
<title>id_14</title>
<polygon fill="none" stroke="#000000" points="302.6777,-294.5 302.6777,-334.5 411.3594,-334.5 411.3594,-294.5 302.6777,-294.5"/>
<text text-anchor="middle" x="357.0186" y="-320.9" font-family="Migu 1M" font-size="12.00" fill="#000000"> </text>
<polyline fill="none" stroke="#000000" points="302.6777,-314.5 411.3594,-314.5 "/>
<text text-anchor="middle" x="334.6836" y="-300.9" font-family="Migu 1M" font-size="12.00" fill="#000000">[key] dim</text>
<polyline fill="none" stroke="#000000" points="366.6895,-294.5 366.6895,-314.5 "/>
<text text-anchor="middle" x="389.0244" y="-300.9" font-family="Migu 1M" font-size="12.00" fill="#000000">Array</text>
</g>
<!-- id_13&#45;&gt;id_14 -->
<g id="edge5" class="edge">
<title>id_13:0&#45;&gt;id_14</title>
<path fill="none" stroke="#ffffff" d="M416.0186,-441.5C416.0186,-405.1235 395.8637,-367.8849 379.1139,-343.2185"/>
<polygon fill="#ffffff" stroke="#ffffff" points="381.756,-340.891 373.1406,-334.7245 376.0301,-344.9177 381.756,-340.891"/>
</g>
<!-- id_15 -->
<g id="node7" class="node">
<title>id_15</title>
<polygon fill="none" stroke="#000000" points="347.3369,-117.5 347.3369,-217.5 430.7002,-217.5 430.7002,-117.5 347.3369,-117.5"/>
<text text-anchor="middle" x="389.0186" y="-203.9" font-family="Migu 1M" font-size="12.00" fill="#000000"> </text>
<polyline fill="none" stroke="#000000" points="347.3369,-197.5 430.7002,-197.5 "/>
<text text-anchor="middle" x="362.0078" y="-183.9" font-family="Migu 1M" font-size="12.00" fill="#000000">[0]</text>
<polyline fill="none" stroke="#000000" points="376.6787,-177.5 376.6787,-197.5 "/>
<text text-anchor="middle" x="403.6895" y="-183.9" font-family="Migu 1M" font-size="12.00" fill="#000000">Jobject</text>
<polyline fill="none" stroke="#000000" points="347.3369,-177.5 430.7002,-177.5 "/>
<text text-anchor="middle" x="362.0078" y="-163.9" font-family="Migu 1M" font-size="12.00" fill="#000000">[1]</text>
<polyline fill="none" stroke="#000000" points="376.6787,-157.5 376.6787,-177.5 "/>
<text text-anchor="middle" x="403.6895" y="-163.9" font-family="Migu 1M" font-size="12.00" fill="#000000">Jobject</text>
<polyline fill="none" stroke="#000000" points="347.3369,-157.5 430.7002,-157.5 "/>
<text text-anchor="middle" x="362.0078" y="-143.9" font-family="Migu 1M" font-size="12.00" fill="#000000">[2]</text>
<polyline fill="none" stroke="#000000" points="376.6787,-137.5 376.6787,-157.5 "/>
<text text-anchor="middle" x="403.6895" y="-143.9" font-family="Migu 1M" font-size="12.00" fill="#000000">Jobject</text>
<polyline fill="none" stroke="#000000" points="347.3369,-137.5 430.7002,-137.5 "/>
<text text-anchor="middle" x="362.0078" y="-123.9" font-family="Migu 1M" font-size="12.00" fill="#000000">[3]</text>
<polyline fill="none" stroke="#000000" points="376.6787,-117.5 376.6787,-137.5 "/>
<text text-anchor="middle" x="403.6895" y="-123.9" font-family="Migu 1M" font-size="12.00" fill="#000000">Jobject</text>
</g>
<!-- id_14&#45;&gt;id_15 -->
<g id="edge6" class="edge">
<title>id_14:dim&#45;&gt;id_15</title>
<path fill="none" stroke="#ffffff" d="M389.0186,-294.5C389.0186,-272.7098 389.0186,-248.8165 389.0186,-227.6914"/>
<polygon fill="#ffffff" stroke="#ffffff" points="392.5187,-227.5646 389.0186,-217.5647 385.5187,-227.5647 392.5187,-227.5646"/>
</g>
<!-- id_19 -->
<g id="node8" class="node">
<title>id_19</title>
<polygon fill="none" stroke="#000000" points="0,-.5 0,-40.5 136.0371,-40.5 136.0371,-.5 0,-.5"/>
<text text-anchor="middle" x="68.0186" y="-26.9" font-family="Migu 1M" font-size="12.00" fill="#000000"> </text>
<polyline fill="none" stroke="#000000" points="0,-20.5 136.0371,-20.5 "/>
<text text-anchor="middle" x="33.0078" y="-6.9" font-family="Migu 1M" font-size="12.00" fill="#000000">[key] size</text>
<polyline fill="none" stroke="#000000" points="66.0156,-.5 66.0156,-20.5 "/>
<text text-anchor="middle" x="89.6895" y="-6.9" font-family="Migu 1M" font-size="12.00" fill="#000000">String</text>
<polyline fill="none" stroke="#000000" points="113.3633,-.5 113.3633,-20.5 "/>
<text text-anchor="middle" x="124.7002" y="-6.9" font-family="Migu 1M" font-size="12.00" fill="#000000">3</text>
</g>
<!-- id_15&#45;&gt;id_19 -->
<g id="edge7" class="edge">
<title>id_15:3&#45;&gt;id_19</title>
<path fill="none" stroke="#ffffff" d="M404.0186,-117.5C404.0186,-90.8284 245.7194,-55.0715 146.4303,-35.2671"/>
<polygon fill="#ffffff" stroke="#ffffff" points="146.9076,-31.7937 136.4182,-33.2841 145.5476,-38.6603 146.9076,-31.7937"/>
</g>
<!-- id_18 -->
<g id="node9" class="node">
<title>id_18</title>
<polygon fill="none" stroke="#000000" points="215.3262,-.5 215.3262,-40.5 364.7109,-40.5 364.7109,-.5 215.3262,-.5"/>
<text text-anchor="middle" x="290.0186" y="-26.9" font-family="Migu 1M" font-size="12.00" fill="#000000"> </text>
<polyline fill="none" stroke="#000000" points="215.3262,-20.5 364.7109,-20.5 "/>
<text text-anchor="middle" x="248.334" y="-6.9" font-family="Migu 1M" font-size="12.00" fill="#000000">[key] size</text>
<polyline fill="none" stroke="#000000" points="281.3418,-.5 281.3418,-20.5 "/>
<text text-anchor="middle" x="305.0156" y="-6.9" font-family="Migu 1M" font-size="12.00" fill="#000000">String</text>
<polyline fill="none" stroke="#000000" points="328.6895,-.5 328.6895,-20.5 "/>
<text text-anchor="middle" x="346.7002" y="-6.9" font-family="Migu 1M" font-size="12.00" fill="#000000">128</text>
</g>
<!-- id_15&#45;&gt;id_18 -->
<g id="edge8" class="edge">
<title>id_15:2&#45;&gt;id_18</title>
<path fill="none" stroke="#ffffff" d="M431.0186,-147.5C491.1508,-147.5 393.8602,-82.9404 333.0582,-45.8808"/>
<polygon fill="#ffffff" stroke="#ffffff" points="334.7423,-42.809 324.3753,-40.6235 331.1167,-48.7969 334.7423,-42.809"/>
</g>
<!-- id_17 -->
<g id="node10" class="node">
<title>id_17</title>
<polygon fill="none" stroke="#000000" points="443.3262,-.5 443.3262,-40.5 592.7109,-40.5 592.7109,-.5 443.3262,-.5"/>
<text text-anchor="middle" x="518.0186" y="-26.9" font-family="Migu 1M" font-size="12.00" fill="#000000"> </text>
<polyline fill="none" stroke="#000000" points="443.3262,-20.5 592.7109,-20.5 "/>
<text text-anchor="middle" x="476.334" y="-6.9" font-family="Migu 1M" font-size="12.00" fill="#000000">[key] size</text>
<polyline fill="none" stroke="#000000" points="509.3418,-.5 509.3418,-20.5 "/>
<text text-anchor="middle" x="533.0156" y="-6.9" font-family="Migu 1M" font-size="12.00" fill="#000000">String</text>
<polyline fill="none" stroke="#000000" points="556.6895,-.5 556.6895,-20.5 "/>
<text text-anchor="middle" x="574.7002" y="-6.9" font-family="Migu 1M" font-size="12.00" fill="#000000">128</text>
</g>
<!-- id_15&#45;&gt;id_17 -->
<g id="edge9" class="edge">
<title>id_15:1&#45;&gt;id_17</title>
<path fill="none" stroke="#ffffff" d="M431.0186,-167.5C484.8528,-167.5 506.0851,-93.5829 513.8823,-50.5795"/>
<polygon fill="#ffffff" stroke="#ffffff" points="517.3484,-51.0722 515.5477,-40.6315 510.4445,-49.9163 517.3484,-51.0722"/>
</g>
<!-- id_16 -->
<g id="node11" class="node">
<title>id_16</title>
<polygon fill="none" stroke="#000000" points="672,-.5 672,-40.5 808.0371,-40.5 808.0371,-.5 672,-.5"/>
<text text-anchor="middle" x="740.0186" y="-26.9" font-family="Migu 1M" font-size="12.00" fill="#000000"> </text>
<polyline fill="none" stroke="#000000" points="672,-20.5 808.0371,-20.5 "/>
<text text-anchor="middle" x="705.0078" y="-6.9" font-family="Migu 1M" font-size="12.00" fill="#000000">[key] size</text>
<polyline fill="none" stroke="#000000" points="738.0156,-.5 738.0156,-20.5 "/>
<text text-anchor="middle" x="761.6895" y="-6.9" font-family="Migu 1M" font-size="12.00" fill="#000000">String</text>
<polyline fill="none" stroke="#000000" points="785.3633,-.5 785.3633,-20.5 "/>
<text text-anchor="middle" x="796.7002" y="-6.9" font-family="Migu 1M" font-size="12.00" fill="#000000">1</text>
</g>
<!-- id_15&#45;&gt;id_16 -->
<g id="edge10" class="edge">
<title>id_15:0&#45;&gt;id_16</title>
<path fill="none" stroke="#ffffff" d="M431.0186,-187.5C547.3121,-187.5 661.8221,-94.8206 712.6668,-47.5468"/>
<polygon fill="#ffffff" stroke="#ffffff" points="715.1121,-50.0516 719.9854,-40.6441 710.3092,-44.9593 715.1121,-50.0516"/>
</g>
<!-- id_5 -->
<g id="node13" class="node">
<title>id_5</title>
<polygon fill="none" stroke="#000000" points="649.6777,-588.5 649.6777,-628.5 758.3594,-628.5 758.3594,-588.5 649.6777,-588.5"/>
<text text-anchor="middle" x="704.0186" y="-614.9" font-family="Migu 1M" font-size="12.00" fill="#000000"> </text>
<polyline fill="none" stroke="#000000" points="649.6777,-608.5 758.3594,-608.5 "/>
<text text-anchor="middle" x="681.6836" y="-594.9" font-family="Migu 1M" font-size="12.00" fill="#000000">[key] dim</text>
<polyline fill="none" stroke="#000000" points="713.6895,-588.5 713.6895,-608.5 "/>
<text text-anchor="middle" x="736.0244" y="-594.9" font-family="Migu 1M" font-size="12.00" fill="#000000">Array</text>
</g>
<!-- id_4&#45;&gt;id_5 -->
<g id="edge12" class="edge">
<title>id_4:shape&#45;&gt;id_5</title>
<path fill="none" stroke="#ffffff" d="M479.0186,-715.5C498.047,-715.5 597.2238,-664.9449 657.3752,-633.3348"/>
<polygon fill="#ffffff" stroke="#ffffff" points="659.098,-636.3833 666.3142,-628.6259 655.8354,-630.19 659.098,-636.3833"/>
</g>
<!-- id_6 -->
<g id="node14" class="node">
<title>id_6</title>
<polygon fill="none" stroke="#000000" points="723.3369,-411.5 723.3369,-511.5 806.7002,-511.5 806.7002,-411.5 723.3369,-411.5"/>
<text text-anchor="middle" x="765.0186" y="-497.9" font-family="Migu 1M" font-size="12.00" fill="#000000"> </text>
<polyline fill="none" stroke="#000000" points="723.3369,-491.5 806.7002,-491.5 "/>
<text text-anchor="middle" x="738.0078" y="-477.9" font-family="Migu 1M" font-size="12.00" fill="#000000">[0]</text>
<polyline fill="none" stroke="#000000" points="752.6787,-471.5 752.6787,-491.5 "/>
<text text-anchor="middle" x="779.6895" y="-477.9" font-family="Migu 1M" font-size="12.00" fill="#000000">Jobject</text>
<polyline fill="none" stroke="#000000" points="723.3369,-471.5 806.7002,-471.5 "/>
<text text-anchor="middle" x="738.0078" y="-457.9" font-family="Migu 1M" font-size="12.00" fill="#000000">[1]</text>
<polyline fill="none" stroke="#000000" points="752.6787,-451.5 752.6787,-471.5 "/>
<text text-anchor="middle" x="779.6895" y="-457.9" font-family="Migu 1M" font-size="12.00" fill="#000000">Jobject</text>
<polyline fill="none" stroke="#000000" points="723.3369,-451.5 806.7002,-451.5 "/>
<text text-anchor="middle" x="738.0078" y="-437.9" font-family="Migu 1M" font-size="12.00" fill="#000000">[2]</text>
<polyline fill="none" stroke="#000000" points="752.6787,-431.5 752.6787,-451.5 "/>
<text text-anchor="middle" x="779.6895" y="-437.9" font-family="Migu 1M" font-size="12.00" fill="#000000">Jobject</text>
<polyline fill="none" stroke="#000000" points="723.3369,-431.5 806.7002,-431.5 "/>
<text text-anchor="middle" x="738.0078" y="-417.9" font-family="Migu 1M" font-size="12.00" fill="#000000">[3]</text>
<polyline fill="none" stroke="#000000" points="752.6787,-411.5 752.6787,-431.5 "/>
<text text-anchor="middle" x="779.6895" y="-417.9" font-family="Migu 1M" font-size="12.00" fill="#000000">Jobject</text>
</g>
<!-- id_5&#45;&gt;id_6 -->
<g id="edge13" class="edge">
<title>id_5:dim&#45;&gt;id_6</title>
<path fill="none" stroke="#ffffff" d="M736.0186,-588.5C736.0186,-566.2425 740.3044,-542.3291 745.5808,-521.3222"/>
<polygon fill="#ffffff" stroke="#ffffff" points="748.9846,-522.1402 748.1491,-511.5784 742.2158,-520.356 748.9846,-522.1402"/>
</g>
<!-- id_10 -->
<g id="node15" class="node">
<title>id_10</title>
<polygon fill="none" stroke="#000000" points="490,-294.5 490,-334.5 626.0371,-334.5 626.0371,-294.5 490,-294.5"/>
<text text-anchor="middle" x="558.0186" y="-320.9" font-family="Migu 1M" font-size="12.00" fill="#000000"> </text>
<polyline fill="none" stroke="#000000" points="490,-314.5 626.0371,-314.5 "/>
<text text-anchor="middle" x="523.0078" y="-300.9" font-family="Migu 1M" font-size="12.00" fill="#000000">[key] size</text>
<polyline fill="none" stroke="#000000" points="556.0156,-294.5 556.0156,-314.5 "/>
<text text-anchor="middle" x="579.6895" y="-300.9" font-family="Migu 1M" font-size="12.00" fill="#000000">String</text>
<polyline fill="none" stroke="#000000" points="603.3633,-294.5 603.3633,-314.5 "/>
<text text-anchor="middle" x="614.7002" y="-300.9" font-family="Migu 1M" font-size="12.00" fill="#000000">3</text>
</g>
<!-- id_6&#45;&gt;id_10 -->
<g id="edge14" class="edge">
<title>id_6:3&#45;&gt;id_10</title>
<path fill="none" stroke="#ffffff" d="M780.0186,-411.5C780.0186,-379.1448 699.836,-350.6449 635.8479,-333.0524"/>
<polygon fill="#ffffff" stroke="#ffffff" points="636.7012,-329.6575 626.1346,-330.4303 634.8768,-336.4156 636.7012,-329.6575"/>
</g>
<!-- id_9 -->
<g id="node16" class="node">
<title>id_9</title>
<polygon fill="none" stroke="#000000" points="705.3262,-294.5 705.3262,-334.5 854.7109,-334.5 854.7109,-294.5 705.3262,-294.5"/>
<text text-anchor="middle" x="780.0186" y="-320.9" font-family="Migu 1M" font-size="12.00" fill="#000000"> </text>
<polyline fill="none" stroke="#000000" points="705.3262,-314.5 854.7109,-314.5 "/>
<text text-anchor="middle" x="738.334" y="-300.9" font-family="Migu 1M" font-size="12.00" fill="#000000">[key] size</text>
<polyline fill="none" stroke="#000000" points="771.3418,-294.5 771.3418,-314.5 "/>
<text text-anchor="middle" x="795.0156" y="-300.9" font-family="Migu 1M" font-size="12.00" fill="#000000">String</text>
<polyline fill="none" stroke="#000000" points="818.6895,-294.5 818.6895,-314.5 "/>
<text text-anchor="middle" x="836.7002" y="-300.9" font-family="Migu 1M" font-size="12.00" fill="#000000">128</text>
</g>
<!-- id_6&#45;&gt;id_9 -->
<g id="edge15" class="edge">
<title>id_6:2&#45;&gt;id_9</title>
<path fill="none" stroke="#ffffff" d="M807.0186,-441.5C846.8129,-441.5 818.8824,-381.1044 797.7095,-343.6115"/>
<polygon fill="#ffffff" stroke="#ffffff" points="800.5503,-341.5319 792.5175,-334.6235 794.4889,-345.0333 800.5503,-341.5319"/>
</g>
<!-- id_8 -->
<g id="node17" class="node">
<title>id_8</title>
<polygon fill="none" stroke="#000000" points="933.3262,-294.5 933.3262,-334.5 1082.7109,-334.5 1082.7109,-294.5 933.3262,-294.5"/>
<text text-anchor="middle" x="1008.0186" y="-320.9" font-family="Migu 1M" font-size="12.00" fill="#000000"> </text>
<polyline fill="none" stroke="#000000" points="933.3262,-314.5 1082.7109,-314.5 "/>
<text text-anchor="middle" x="966.334" y="-300.9" font-family="Migu 1M" font-size="12.00" fill="#000000">[key] size</text>
<polyline fill="none" stroke="#000000" points="999.3418,-294.5 999.3418,-314.5 "/>
<text text-anchor="middle" x="1023.0156" y="-300.9" font-family="Migu 1M" font-size="12.00" fill="#000000">String</text>
<polyline fill="none" stroke="#000000" points="1046.6895,-294.5 1046.6895,-314.5 "/>
<text text-anchor="middle" x="1064.7002" y="-300.9" font-family="Migu 1M" font-size="12.00" fill="#000000">128</text>
</g>
<!-- id_6&#45;&gt;id_8 -->
<g id="edge16" class="edge">
<title>id_6:1&#45;&gt;id_8</title>
<path fill="none" stroke="#ffffff" d="M807.0186,-461.5C886.6606,-461.5 955.765,-385.3789 988.2566,-342.6909"/>
<polygon fill="#ffffff" stroke="#ffffff" points="991.0929,-344.7422 994.259,-334.6315 985.4788,-340.561 991.0929,-344.7422"/>
</g>
<!-- id_7 -->
<g id="node18" class="node">
<title>id_7</title>
<polygon fill="none" stroke="#000000" points="1162,-294.5 1162,-334.5 1298.0371,-334.5 1298.0371,-294.5 1162,-294.5"/>
<text text-anchor="middle" x="1230.0186" y="-320.9" font-family="Migu 1M" font-size="12.00" fill="#000000"> </text>
<polyline fill="none" stroke="#000000" points="1162,-314.5 1298.0371,-314.5 "/>
<text text-anchor="middle" x="1195.0078" y="-300.9" font-family="Migu 1M" font-size="12.00" fill="#000000">[key] size</text>
<polyline fill="none" stroke="#000000" points="1228.0156,-294.5 1228.0156,-314.5 "/>
<text text-anchor="middle" x="1251.6895" y="-300.9" font-family="Migu 1M" font-size="12.00" fill="#000000">String</text>
<polyline fill="none" stroke="#000000" points="1275.3633,-294.5 1275.3633,-314.5 "/>
<text text-anchor="middle" x="1286.7002" y="-300.9" font-family="Migu 1M" font-size="12.00" fill="#000000">1</text>
</g>
<!-- id_6&#45;&gt;id_7 -->
<g id="edge17" class="edge">
<title>id_6:0&#45;&gt;id_7</title>
<path fill="none" stroke="#ffffff" d="M807.0186,-481.5C958.8276,-481.5 1121.2183,-387.2919 1192.6567,-340.3912"/>
<polygon fill="#ffffff" stroke="#ffffff" points="1194.9194,-343.0902 1201.3159,-334.6441 1191.0485,-337.2579 1194.9194,-343.0902"/>
</g>
</g>
</svg>
